<?xml version="1.0" standalone="no"?>
<!DOCTYPE svg PUBLIC "-//W3C//DTD SVG 20010904//EN"
 "http://www.w3.org/TR/2001/REC-SVG-20010904/DTD/svg10.dtd">
<svg version="1.0" xmlns="http://www.w3.org/2000/svg"
 width="576.000000pt" height="576.000000pt" viewBox="0 0 576.000000 576.000000"
 preserveAspectRatio="xMidYMid meet">
<metadata>
Created by potrace 1.11, written by Peter Selinger 2001-2013
</metadata>
<g transform="translate(0.000000,576.000000) scale(0.100000,-0.100000)"
fill="#000000" stroke="none">
<path d="M3697 5753 c-1 -1 -92 -4 -202 -7 -110 -4 -256 -9 -325 -11 -69 -3
-197 -7 -285 -10 -88 -3 -225 -7 -305 -10 -80 -2 -219 -7 -310 -10 -91 -3
-230 -7 -310 -10 -80 -3 -215 -8 -300 -10 -175 -5 -156 4 -227 -110 -20 -33
-60 -96 -88 -140 -28 -44 -91 -143 -140 -220 -131 -208 -152 -241 -294 -465
-71 -113 -165 -260 -208 -328 -104 -163 -183 -288 -268 -423 -38 -61 -83 -132
-100 -158 -16 -26 -34 -54 -40 -64 -5 -9 -56 -89 -112 -177 -57 -88 -103 -165
-103 -171 0 -6 31 -9 82 -7 78 3 83 2 84 -18 1 -11 6 -42 12 -70 6 -27 21 -98
32 -159 11 -60 22 -121 25 -135 3 -14 8 -41 11 -60 3 -19 14 -78 25 -130 19
-95 19 -95 -2 -138 -30 -60 -20 -120 27 -167 l35 -35 -15 -63 c-17 -71 -34
-151 -40 -187 -2 -14 -9 -46 -15 -73 -23 -100 -24 -120 -6 -113 9 3 45 9 79
12 50 5 64 3 75 -10 27 -33 115 -13 131 29 5 14 15 25 22 26 13 0 35 4 96 14
17 3 32 9 32 12 0 3 -48 78 -108 167 -59 88 -111 171 -115 183 -6 16 -3 30 13
51 32 43 31 110 -3 160 -14 22 -35 43 -47 47 -12 4 -20 15 -21 28 0 12 -2 29
-4 37 -1 8 -6 35 -9 60 -4 25 -18 110 -31 190 -13 80 -26 167 -30 194 -3 27
-8 52 -10 55 -1 3 -6 30 -10 59 -6 46 -4 52 12 53 27 1 117 7 211 13 92 7 212
15 502 32 l95 5 134 -226 c132 -223 134 -228 121 -259 -57 -136 -112 -334
-144 -511 -28 -152 -28 -507 -1 -660 17 -94 28 -148 47 -215 11 -41 21 -82 23
-90 2 -8 19 -59 39 -113 52 -143 138 -313 229 -449 l79 -120 56 6 c32 3 68 8
82 11 14 2 45 6 70 9 52 7 64 9 264 42 124 21 220 39 525 100 21 4 23 3 11
-11 -29 -35 -73 -56 -142 -70 -40 -8 -83 -16 -94 -19 -12 -2 -38 -7 -59 -10
-20 -4 -40 -8 -44 -10 -3 -2 -28 -7 -54 -10 -26 -4 -71 -11 -100 -17 -51 -10
-74 -14 -147 -24 -19 -3 -46 -7 -60 -10 -14 -3 -63 -10 -110 -16 -47 -6 -92
-13 -100 -14 -8 -2 -23 -4 -33 -4 -17 -1 -17 -3 3 -30 37 -54 204 -216 301
-293 241 -194 515 -331 815 -408 64 -17 139 -33 167 -36 29 -4 55 -8 58 -10
29 -17 400 -25 539 -11 392 38 798 204 1115 456 106 84 241 214 311 301 16 19
31 37 34 40 44 42 190 269 249 388 67 133 149 354 164 442 3 14 10 43 15 65 6
22 14 63 18 90 3 28 8 52 9 55 16 26 23 350 12 500 -8 103 -9 114 -33 235
-113 584 -481 1109 -1000 1428 -183 112 -409 205 -614 252 -117 28 -187 40
-295 51 -33 3 -63 8 -66 10 -4 2 -23 32 -42 67 -50 91 -83 150 -148 265 l-58
102 193 308 c106 169 247 394 314 500 l121 192 -145 -2 c-80 -2 -146 -4 -147
-5z"/>
</g>
</svg>
